<svg xmlns="http://www.w3.org/2000/svg" xmlns:xlink="http://www.w3.org/1999/xlink" width="28.841" height="26.894" viewBox="0 0 28.841 26.894"><defs><style>.a{opacity:0.21;}.b{fill:url(#a);}.c{fill:#2b79c0;}.d{fill:#68e5ee;}</style><linearGradient id="a" x1="0.5" x2="0.5" y2="1" gradientUnits="objectBoundingBox"><stop offset="0" stop-color="#2b79c0"/><stop offset="1" stop-color="#68e5ee"/></linearGradient></defs><g class="a" transform="translate(0 0)"><path class="b" d="M59.224,227.716H35.209a.455.455,0,0,0-.455.455V242.3a.455.455,0,0,0,.455.455H59.224a.455.455,0,0,0,.455-.455V228.171A.455.455,0,0,0,59.224,227.716Z" transform="translate(-32.796 -215.862)"/><path class="c" d="M59.224,227.716H35.209a.455.455,0,0,0-.455.455v1.822H59.679v-1.822A.455.455,0,0,0,59.224,227.716Z" transform="translate(-32.796 -215.862)"/><path class="d" d="M211.726,227.716h-4.653a.455.455,0,0,0-.455.455V242.3a.455.455,0,0,0,.455.455h4.653a.455.455,0,0,0,.455-.455V228.171A.455.455,0,0,0,211.726,227.716Z" transform="translate(-194.979 -215.862)"/><path class="c" d="M211.726,227.716h-4.653a.455.455,0,0,0-.455.455v1.812h5.563v-1.812A.455.455,0,0,0,211.726,227.716Z" transform="translate(-194.979 -215.862)"/><path class="d" d="M291.443,20.723a9.2,9.2,0,0,0-1.885-3.041,1.39,1.39,0,0,0-1.044-.4c-1.367.032-3.6,1.748-6.622,5.1a.455.455,0,0,0-.117.305V25.1a.455.455,0,0,0,.455.455h7a2.391,2.391,0,0,0,2.47-1.4A4.812,4.812,0,0,0,291.443,20.723Z" transform="translate(-265.903 -17.282)"/><path class="c" d="M322.226,79.284a.457.457,0,0,0-.06-.132c-.688-1.04-2.173-.651-3.3-.141a11.25,11.25,0,0,0-4.675,3.6.455.455,0,0,0,.382.7h5.183a2.59,2.59,0,0,0,2.189-.906A3.556,3.556,0,0,0,322.226,79.284Z" transform="translate(-296.424 -75.049)"/><path class="d" d="M60.2,22.383c-3.027-3.352-5.255-5.068-6.622-5.1a1.388,1.388,0,0,0-1.044.4,9.2,9.2,0,0,0-1.885,3.041,4.813,4.813,0,0,0-.263,3.432,2.391,2.391,0,0,0,2.47,1.4h7a.455.455,0,0,0,.455-.455V22.689A.455.455,0,0,0,60.2,22.383Z" transform="translate(-47.351 -17.283)"/><path class="c" d="M58.382,82.616a11.25,11.25,0,0,0-4.675-3.6c-1.125-.509-2.611-.9-3.3.141a.456.456,0,0,0-.06.132,3.556,3.556,0,0,0,.28,3.129,2.59,2.59,0,0,0,2.189.906H58a.455.455,0,0,0,.382-.7Z" transform="translate(-47.309 -75.05)"/><path class="c" d="M218.325,97.175H214.51a.455.455,0,0,0-.455.455v2.859a.455.455,0,0,0,.455.455h3.815a.455.455,0,0,0,.455-.455V97.63A.455.455,0,0,0,218.325,97.175Z" transform="translate(-201.997 -92.675)"/><path class="b" d="M28.385,147.943H.455A.455.455,0,0,0,0,148.4v4.494a.455.455,0,0,0,.455.455h27.93a.455.455,0,0,0,.455-.455V148.4A.455.455,0,0,0,28.385,147.943Z" transform="translate(0 -140.583)"/><rect class="d" width="6.996" height="5.404" transform="translate(10.922 7.36)"/></g></svg>