<svg xmlns="http://www.w3.org/2000/svg" width="29.803" height="27.067" viewBox="0 0 29.803 27.067"><defs><style>.a{fill:#5af4ff;stroke:#1e1e1e;}.b,.d{fill:#2b79c0;}.c{fill:#68e5ee;}.d{opacity:0;}</style></defs><g transform="translate(0 0.063)"><g transform="translate(5.569 0.437)"><circle class="a" cx="9.332" cy="9.332" r="9.332"/><circle class="b" cx="7.466" cy="7.466" r="7.466" transform="translate(1.866 1.866)"/><path class="c" d="M185.818,115.534l.825,2.539h2.67a.459.459,0,0,1,.27.831l-2.16,1.569.825,2.539a.459.459,0,0,1-.707.514l-2.16-1.569-2.16,1.569a.459.459,0,0,1-.707-.514l.825-2.539-2.16-1.569a.459.459,0,0,1,.27-.831h2.67l.825-2.539A.459.459,0,0,1,185.818,115.534Z" transform="translate(-176.023 -110.346)"/><path class="b" d="M181.448,164.289a.459.459,0,0,0-.27.831l2.16,1.569-.825,2.539a.459.459,0,0,0,.707.514l2.16-1.569,2.16,1.569a.459.459,0,0,0,.707-.514l-.825-2.539c-3.384.456-3.3-2.4-3.3-2.4Z" transform="translate(-176.022 -156.562)"/><path class="c" d="M136.373,103.892a7.461,7.461,0,0,1-5.827-12.126,7.462,7.462,0,1,0,10.488,10.488A7.429,7.429,0,0,1,136.373,103.892Z" transform="translate(-125.875 -88.261)"/></g><path d="M181.983,110.212a.89.89,0,0,0-.859-.624h-2.395l-.74-2.278a.9.9,0,0,0-1.718,0l-.74,2.278h-2.395a.9.9,0,0,0-.531,1.634l1.938,1.408-.74,2.278a.89.89,0,0,0,.328,1.01.89.89,0,0,0,1.062,0l1.938-1.408,1.938,1.408a.9.9,0,0,0,1.39-1.01l-.74-2.278,1.938-1.408A.89.89,0,0,0,181.983,110.212Zm-.841.3-2.194,1.594a.437.437,0,0,0-.159.488l.838,2.579c0,.012.007.021-.011.034s-.025.008-.035,0l-2.194-1.594a.436.436,0,0,0-.513,0l-2.194,1.594c-.011.008-.018.013-.035,0s-.015-.021-.011-.034l.838-2.579a.437.437,0,0,0-.159-.488l-2.194-1.594c-.011-.008-.018-.013-.011-.034s.015-.021.029-.021h2.712a.437.437,0,0,0,.415-.3l.838-2.579c0-.012.007-.021.029-.021s.024.008.029.021l.838,2.579a.437.437,0,0,0,.415.3h2.712c.013,0,.022,0,.029.021S181.152,110.508,181.141,110.515Z" transform="translate(-162.205 -101.876)"/><path class="d" d="M97.946,24.048A9.768,9.768,0,0,0,93.31,42.414v8.2a.437.437,0,0,0,.614.4l4.022-1.788,4.022,1.788a.437.437,0,0,0,.614-.4v-8.2a9.768,9.768,0,0,0-4.636-18.366ZM94.183,42.832a9.7,9.7,0,0,0,3.326.744v4.889l-3.326,1.478Zm7.526,7.112-3.326-1.478V43.575a9.7,9.7,0,0,0,3.326-.744Zm-3.763-7.231a8.9,8.9,0,1,1,8.9-8.9A8.906,8.906,0,0,1,97.946,42.713Z" transform="translate(-83.044 -24.048)"/><path class="c" d="M3.673,184.808a.437.437,0,0,0-.437-.437H.437a.437.437,0,0,0,0,.873h2.8A.437.437,0,0,0,3.673,184.808Z" transform="translate(0 -175.039)"/><path class="c" d="M452.139,184.371h-2.8a.437.437,0,1,0,0,.873h2.8a.437.437,0,0,0,0-.873Z" transform="translate(-422.773 -175.039)"/><path class="c" d="M28.48,117.151l-1.785-.544a.437.437,0,0,0-.255.835l1.785.544a.437.437,0,1,0,.255-.835Z" transform="translate(-24.61 -111.201)"/><path class="c" d="M442.543,243.363l-1.785-.544a.437.437,0,1,0-.255.835l1.785.544a.437.437,0,0,0,.255-.835Z" transform="translate(-414.57 -230.067)"/><path class="c" d="M440.63,118a.434.434,0,0,0,.127-.019l1.785-.544a.437.437,0,0,0-.255-.835l-1.785.544a.437.437,0,0,0,.127.854Z" transform="translate(-414.57 -111.2)"/><path class="c" d="M28.226,242.82l-1.785.544a.437.437,0,1,0,.255.835l1.785-.544a.437.437,0,1,0-.255-.835Z" transform="translate(-24.61 -230.067)"/><path d="M123.266,59.137a7.033,7.033,0,0,1,9.276-.578.437.437,0,0,0,.536-.689A7.9,7.9,0,0,0,122,68.949a.437.437,0,1,0,.689-.536A7.033,7.033,0,0,1,123.266,59.137Z" transform="translate(-113.335 -54.338)"/><path d="M180.563,105.89a.436.436,0,0,0-.077.613,7.023,7.023,0,0,1-9.854,9.854.437.437,0,0,0-.536.689,7.9,7.9,0,0,0,11.08-11.08A.437.437,0,0,0,180.563,105.89Z" transform="translate(-160.036 -101.039)"/></g></svg>